<?xml version="1.0" encoding="utf-8"?>
<!-- Svg Vector Icons : http://www.onlinewebfonts.com/icon -->
<!DOCTYPE svg PUBLIC "-//W3C//DTD SVG 1.1//EN" "http://www.w3.org/Graphics/SVG/1.1/DTD/svg11.dtd">
<svg version="1.1" xmlns="http://www.w3.org/2000/svg" xmlns:xlink="http://www.w3.org/1999/xlink" x="0px" y="0px" viewBox="0 0 1000 1000" enable-background="new 0 0 1000 1000" xml:space="preserve">
<metadata> Svg Vector Icons : http://www.onlinewebfonts.com/icon </metadata>
<g><g transform="translate(0.000000,360.000000) scale(0.100000,-0.100000)"><path d="M2931.9,2002.1c-159.2-54.4-1174.5-425.1-1250.2-456.2c-87.4-36.9-133.9-120.4-201.9-363c-34.9-122.3-108.7-304.8-184.4-456.2C767.4-327.5,324.8-1579.6,175.3-2437.6C53-3142.3,80.2-3724.7,253-4142c116.5-277.6,361.1-559.1,572.7-654.2c102.9-48.5,285.4-46.6,388.3,0c42.7,19.4,434.8,343.6,873.6,718.3c450.4,384.4,842.5,706.6,904.6,739.6c225.2,120.4,174.7,116.5,2007.3,116.5c1826.7,0,1774.3,3.9,2005.3-114.5c71.8-36.9,394.1-299,906.6-739.6c446.5-382.4,832.8-700.8,881.3-722.2c54.4-25.2,124.3-38.8,198-38.8c151.4,0,275.7,69.9,465.9,256.3c178.6,176.7,300.9,407.7,378.5,708.6c67.9,264,85.4,737.7,38.8,1108.5c-116.5,953.2-549.3,2249.9-1153.1,3453.5c-81.6,167-159.2,355.3-196.1,483.4c-69.9,240.7-102.9,310.6-163,349.4c-23.3,15.5-335.8,135.9-693.1,266c-609.6,223.2-660,238.8-795.9,238.8l-147.5,1.9l-231-135.9l-232.9-135.9l-335.8-5.8l-333.9-5.8l2-227.1c3.9-252.4-17.5-335.8-118.4-477.5c-67.9-93.2-124.2-139.8-252.4-207.7c-73.8-38.8-114.5-46.6-271.8-46.6c-165,0-196.1,5.8-287.3,54.3c-186.4,99-312.5,266-351.4,465.9c-9.7,50.5-11.7,170.8-5.8,266l9.7,174.7h-256.2h-254.3l-267.9,137.8C3228.9,2046.7,3122.2,2068.1,2931.9,2002.1z M7474.5,998.4c89.3-19.4,205.8-135.9,231-234.9c64.1-236.8-155.3-456.2-390.2-392.1c-116.5,31.1-223.2,145.6-238.8,258.2c-17.5,110.7,13.6,201.9,93.2,279.5C7264.9,1002.3,7342.5,1023.7,7474.5,998.4z M2840.7,773.2c62.1-29.1,163.1-100.9,225.2-161.1c417.4-398,302.8-1065.8-227.1-1316.2c-120.4-58.2-145.6-62.1-333.9-62.1c-188.3,0-213.5,3.9-335.8,62.1c-328.1,155.3-528,522.2-464,860c56.3,302.8,250.4,537.7,533.8,642.6C2392.3,854.8,2687.3,843.1,2840.7,773.2z M6911.5,307.3c101-69.9,141.7-137.8,149.5-252.4c13.6-201.9-137.9-353.3-339.7-339.7c-238.8,17.5-372.7,267.9-254.3,479.5C6550.4,344.2,6773.7,400.5,6911.5,307.3z M8214.1,305.4c196.1-132,207.7-390.2,25.3-530c-62.1-48.5-91.2-56.3-192.2-56.3c-100.9,0-130,7.8-192.2,56.3C7608.4-38.2,7738.5,350,8047.2,350C8120.9,350,8165.6,338.4,8214.1,305.4z M7497.8-310c149.5-42.7,252.4-231,209.6-388.3c-67.9-250.4-366.9-324.2-547.4-133.9c-124.2,130.1-120.4,314.5,9.7,440.7C7270.7-294.5,7358-271.2,7497.8-310z M4203.5-445.9c100.9-62.1,126.2-139.8,126.2-386.3v-215.5H4549c264,0,330-27.2,398-155.3c36.9-75.7,42.7-114.5,42.7-339.7c0-287.3-21.4-357.2-133.9-431c-60.2-40.8-89.3-44.6-295.1-44.6h-231v-231c0-205.8-3.9-234.9-44.6-295.1c-79.6-118.4-141.7-135.9-460.1-130c-258.2,5.8-287.3,9.7-345.5,50.5c-102.9,73.8-120.4,130.1-120.4,382.4v223.2h-227.1c-192.2,0-238.8,5.8-291.2,38.8c-116.5,69.9-132,114.5-137.8,417.4c-5.8,252.4-3.9,277.6,38.8,357.2c67.9,132,133.9,157.2,398,157.2H3359v219.4c0,244.6,23.3,314.5,126.2,382.4c52.4,34.9,93.2,38.8,357.2,38.8C4108.3-407.1,4147.2-410.9,4203.5-445.9z M6531-832.2c555.2-194.1,714.4-914.3,295.1-1331.7c-467.8-467.9-1265.7-207.7-1376.3,450.4c-66,399.9,209.6,807.6,617.3,912.4C6193.3-770.1,6389.3-781.7,6531-832.2z"/><path d="M2398.1,507.3c-382.4-93.2-506.7-576.6-213.5-834.7c102.9-89.3,182.5-118.4,320.3-118.4c143.7,0,238.8,36.9,337.8,132c102.9,99,147.5,201.9,147.5,345.6C2990.2,344.2,2699,579.1,2398.1,507.3z"/><path d="M3689-1047.7v-330h-330h-330v-165v-165h330h330V-2028v-320.3h155.3h155.3v320.3v320.3h330h330v165v165l-324.2,3.9l-326.1,5.8l-5.8,326.1l-3.9,324.2h-155.3H3689V-1047.7z"/><path d="M6090.4-1133.1c-310.6-114.5-421.3-491.1-221.3-753.2c186.4-242.7,553.3-252.4,753.2-17.5c201.9,232.9,128.2,601.8-147.5,743.5C6377.7-1109.8,6189.4-1096.2,6090.4-1133.1z"/><path d="M4634.4,1559.5c-11.6-170.8-7.8-199.9,31.1-277.6c60.2-122.3,145.6-174.7,285.4-174.7c139.8,0,225.2,52.4,285.4,174.7c38.8,77.7,42.7,106.8,31,277.6l-11.6,188.3h-304.8h-304.8L4634.4,1559.5z"/></g></g>
</svg>